<svg width="20" height="10" viewBox="0 0 20 10" fill="none" xmlns="http://www.w3.org/2000/svg">
<path d="M1 4.00497C0.447715 4.00497 0 4.45269 0 5.00497C0 5.55726 0.447715 6.00497 1 6.00497V4.00497ZM16.9381 6.00497C17.4904 6.00497 17.9381 5.55726 17.9381 5.00497C17.9381 4.45269 17.4904 4.00497 16.9381 4.00497V6.00497ZM19.62 5.74935C20.012 5.36034 20.0145 4.72718 19.6255 4.33515C19.2364 3.94313 18.6033 3.94069 18.2113 4.3297L19.62 5.74935ZM14.2389 8.2716C13.8468 8.66062 13.8444 9.29378 14.2334 9.68581C14.6224 10.0778 15.2556 10.0803 15.6476 9.69125L14.2389 8.2716ZM18.2057 5.70918C18.5946 6.1013 19.2277 6.10388 19.6199 5.71496C20.012 5.32603 20.0146 4.69287 19.6256 4.30076L18.2057 5.70918ZM15.6532 0.295786C15.2643 -0.0963292 14.6311 -0.0989146 14.239 0.290012C13.8469 0.678938 13.8443 1.3121 14.2333 1.70421L15.6532 0.295786ZM1 6.00497H16.9381V4.00497H1V6.00497ZM18.2113 4.3297L14.2389 8.2716L15.6476 9.69125L19.62 5.74935L18.2113 4.3297ZM19.6256 4.30076L15.6532 0.295786L14.2333 1.70421L18.2057 5.70918L19.6256 4.30076Z" fill="black"/>
</svg>
