<svg width="20" height="19" viewBox="0 0 20 19" fill="none" xmlns="http://www.w3.org/2000/svg">
<path d="M2.00008 16L2.97453 16.2246L2.00008 16ZM18.0001 16L17.0256 16.2246L18.0001 16ZM2.97453 16.2246C3.58013 13.5976 6.01633 12 10.0001 12V10C5.53935 10 1.9278 11.8619 1.02564 15.7754L2.97453 16.2246ZM10.0001 12C13.9838 12 16.42 13.5976 17.0256 16.2246L18.9745 15.7754C18.0724 11.8619 14.4608 10 10.0001 10V12ZM17.0256 16.2246C17.0525 16.3413 17.0002 16.2403 17.0981 16.0827C17.1898 15.9352 17.3005 15.9221 17.2254 15.9442C17.1503 15.9663 17.0112 15.987 16.7761 15.9958C16.5424 16.0045 16.3008 16 16.0001 16V18C16.2516 18 16.5673 18.005 16.8508 17.9944C17.1331 17.9839 17.4715 17.9564 17.7893 17.8631C18.1072 17.7697 18.5263 17.5739 18.7971 17.138C19.0741 16.692 19.0717 16.1969 18.9745 15.7754L17.0256 16.2246ZM1.02564 15.7754C0.928477 16.1969 0.926062 16.692 1.20312 17.138C1.47389 17.5739 1.89302 17.7697 2.21092 17.8631C2.52871 17.9564 2.86708 17.9839 3.14938 17.9944C3.43291 18.005 3.74855 18 4.00009 18V16C3.69934 16 3.45781 16.0045 3.22403 15.9958C2.989 15.987 2.84989 15.9663 2.77473 15.9442C2.69969 15.9221 2.81041 15.9352 2.90203 16.0827C2.99994 16.2403 2.94763 16.3413 2.97453 16.2246L1.02564 15.7754ZM12.0001 4C12.0001 5.10457 11.1047 6 10.0001 6V8C12.2092 8 14.0001 6.20914 14.0001 4H12.0001ZM10.0001 6C8.89552 6 8.00008 5.10457 8.00008 4H6.00008C6.00008 6.20914 7.79095 8 10.0001 8V6ZM8.00008 4C8.00008 2.89543 8.89552 2 10.0001 2V0C7.79095 0 6.00008 1.79086 6.00008 4H8.00008ZM10.0001 2C11.1047 2 12.0001 2.89543 12.0001 4H14.0001C14.0001 1.79086 12.2092 0 10.0001 0V2ZM4.00009 18H16.0001V16H4.00009V18Z" fill="black"/>
</svg>
